<?xml version="1.0" standalone="no"?>
<!DOCTYPE svg PUBLIC "-//W3C//DTD SVG 20010904//EN"
 "http://www.w3.org/TR/2001/REC-SVG-20010904/DTD/svg10.dtd">
<svg version="1.0" xmlns="http://www.w3.org/2000/svg"
 width="1024.000000pt" height="1024.000000pt" viewBox="0 0 1024.000000 1024.000000"
 preserveAspectRatio="xMidYMid meet">
<metadata>
Created by potrace 1.14, written by Peter Selinger 2001-2017
</metadata>
<g transform="translate(0.000000,1024.000000) scale(0.100000,-0.100000)"
fill="#000000" stroke="none">
<path d="M2887 8944 c-1 -1 -40 -4 -87 -8 -124 -9 -251 -33 -360 -69 -52 -17
-97 -31 -100 -32 -44 -10 -244 -114 -327 -171 -409 -279 -658 -695 -718 -1199
-9 -68 -8 -4656 0 -4730 34 -315 160 -614 362 -865 64 -80 182 -196 248 -245
22 -16 42 -32 45 -36 16 -18 147 -99 234 -144 178 -91 392 -154 586 -171 67
-6 4670 -6 4705 -1 17 3 55 8 86 12 69 7 70 7 194 40 121 32 282 98 390 161
128 75 222 149 345 273 266 267 431 618 466 991 9 97 9 4601 0 4700 -6 69 -18
149 -32 210 -3 14 -7 34 -9 46 -14 63 -72 222 -115 309 -133 274 -335 503
-590 667 -82 53 -234 131 -300 153 -3 1 -18 7 -35 14 -42 17 -212 62 -260 67
-21 3 -42 7 -45 9 -23 14 -464 18 -2438 19 -1234 0 -2244 0 -2245 0z"/>
</g>
</svg>
